<?xml version="1.0"?>
<svg xmlns="http://www.w3.org/2000/svg" xmlns:xlink="http://www.w3.org/1999/xlink" xmlns:svgjs="http://svgjs.com/svgjs" version="1.1" width="512" height="512" x="0" y="0" viewBox="0 0 512 512" style="enable-background:new 0 0 512 512" xml:space="preserve" class=""><g>
<g xmlns="http://www.w3.org/2000/svg">
	<path d="M476.041,332.5c-5.369-59.55-34.782-114.321-81.202-151.858c0.662,26.542,0.02,53.962,0.02,80.603c0,8.284-6.716,15-15,15   s-15-6.716-15-15v-78.997c0-17.255-13.056-31.739-29.961-33.762C334.898,207,335,273.242,335,332.5H476.041z" fill="#f5771f" data-original="#000000" style="" class=""/>
	<path d="M497,362.5H15c-8.261,0-15,6.738-15,15v36c0,8.284,6.716,15,15,15h482c8.284,0,15-6.716,15-15v-36   C512,369.238,505.262,362.5,497,362.5z" fill="#f5771f" data-original="#000000" style="" class=""/>
	<path d="M304.999,132.499c0-26.916-22.083-48.999-48.999-48.999c-26.919,0-49,22.081-49,48.999v200h97.999V132.499z" fill="#f5771f" data-original="#000000" style="" class=""/>
	<path d="M177.102,148.487c-16.906,2.023-29.961,16.506-29.961,33.762v78.997c0,8.284-6.716,15-15,15c-8.284,0-15-6.716-15-15   c0-26.649-0.614-54.01,0.02-80.569c-24.208,19.577-44.198,44.161-58.391,72.176c-12.305,24.287-20.252,51.18-22.812,79.648H177   C177,273.241,177,207,177.102,148.487z" fill="#f5771f" data-original="#000000" style="" class=""/>
</g>















</g></svg>
